<?xml version="1.0" encoding="utf-8"?>
<svg viewBox="0 0 500 500" xmlns="http://www.w3.org/2000/svg">
  <rect x="51.379" y="226.191" width="117.168" height="132.206" style="fill: rgb(242, 255, 0);"/>
  <rect x="169.173" y="224.311" width="127.193" height="132.206" style=""/>
  <rect x="296.992" y="221.804" width="124.06" height="134.085" style="fill: rgb(216, 0, 4);"/>
  <path d="M 45.74 241.855 C 54.847 224.483 64.564 214.239 75.408 202.419 C 79.085 198.411 80.025 190.288 84.092 185.856 C 89.021 180.484 97.267 174.486 100.011 168.505 C 100.945 166.467 111.61 143.291 115.931 147.999 C 136.414 170.324 152.637 204.57 171.649 225.292 C 173.697 227.525 161.307 226.31 160.795 226.869 C 158.46 229.415 143.561 230.024 139.086 230.024 C 117.679 230.024 97.605 233.178 76.131 233.178 C 69.377 233.178 62.623 233.178 55.871 233.178 C 53.815 233.178 45.283 233.178 47.91 233.178" style="stroke: rgb(0, 0, 0); fill: rgb(18, 216, 0);"/>
  <path d="M 172.52 236.465 C 181.627 219.093 191.344 208.849 202.188 197.029 C 205.865 193.021 206.805 184.898 210.872 180.466 C 215.801 175.094 224.047 169.096 226.791 163.115 C 227.725 161.077 238.39 137.901 242.711 142.609 C 263.194 164.934 279.417 199.18 298.429 219.902 C 300.477 222.135 288.087 220.92 287.575 221.479 C 285.24 224.025 270.341 224.634 265.866 224.634 C 244.459 224.634 224.385 227.788 202.911 227.788 C 196.157 227.788 189.403 227.788 182.651 227.788 C 180.595 227.788 172.063 227.788 174.69 227.788" style="stroke: rgb(0, 0, 0); fill: rgb(46, 216, 12);" transform="matrix(0.999549, 0.030023, -0.030023, 0.999549, 5.787221, -6.98778)"/>
  <path d="M 293.447 235.212 C 302.554 217.84 312.271 207.596 323.115 195.776 C 326.792 191.768 327.732 183.645 331.799 179.213 C 336.728 173.841 344.974 167.843 347.718 161.862 C 348.652 159.824 359.317 136.648 363.638 141.356 C 384.121 163.681 400.344 197.927 419.356 218.649 C 421.404 220.882 409.014 219.667 408.502 220.226 C 406.167 222.772 391.268 223.381 386.793 223.381 C 365.386 223.381 345.312 226.535 323.838 226.535 C 317.084 226.535 310.33 226.535 303.578 226.535 C 301.522 226.535 292.99 226.535 295.617 226.535" style="stroke: rgb(0, 0, 0); fill: rgb(31, 216, 14);" transform="matrix(0.999372, 0.035423, -0.035423, 0.999372, 6.882183, -12.510891)"/>
  <path style="fill: rgb(216, 216, 216); stroke: rgb(0, 0, 0);" d="M 128.447 359.021 C 146.364 355.62 130.38 309.127 107.362 309.246 C 95.004 309.31 69.93 339.094 78.947 359.022"/>
  <path style="fill: rgb(216, 216, 216); stroke: rgb(0, 0, 0);" d="M 256.195 359.474 C 274.112 356.073 258.128 309.58 235.11 309.699 C 222.752 309.763 197.678 339.547 206.695 359.475"/>
  <path style="fill: rgb(216, 216, 216); stroke: rgb(0, 0, 0);" d="M 381.508 355.087 C 399.425 351.686 383.441 305.193 360.423 305.312 C 348.065 305.376 322.991 335.16 332.008 355.088"/>
  <rect x="61.403" y="244.987" width="22.556" height="25.689" style="fill: rgb(216, 216, 216);"/>
  <rect x="377.82" y="238.409" width="22.556" height="25.689" style="fill: rgb(216, 216, 216);"/>
  <rect x="312.03" y="238.409" width="22.556" height="25.689" style="fill: rgb(216, 216, 216);"/>
  <rect x="246.241" y="241.541" width="22.556" height="25.689" style="fill: rgb(216, 216, 216);"/>
  <rect x="184.211" y="244.048" width="22.556" height="25.689" style="fill: rgb(216, 216, 216);"/>
  <rect x="122.181" y="245.301" width="22.556" height="25.689" style="fill: rgb(216, 216, 216);"/>
</svg>